Coordinates
version=1
nRows=18
nColumns=63
inDegrees=yes

Units are S.I. units (second, meters, Newtons, ...)
If the header above contains a line with 'inDegrees', this indicates whether rotational values are in degrees (yes) or radians (no).

endheader
time	pelvis_tilt	pelvis_list	pelvis_rotation	pelvis_tx	pelvis_ty	pelvis_tz	hip_flexion_r	hip_adduction_r	hip_rotation_r	knee_angle_r	knee_angle_r_beta	ankle_angle_r	subtalar_angle_r	mtp_angle_r	hip_flexion_l	hip_adduction_l	hip_rotation_l	knee_angle_l	knee_angle_l_beta	ankle_angle_l	subtalar_angle_l	mtp_angle_l	L5_S1_Flex_Ext	L5_S1_Lat_Bending	L5_S1_axial_rotation	L4_L5_Flex_Ext	L4_L5_Lat_Bending	L4_L5_axial_rotation	L3_L4_Flex_Ext	L3_L4_Lat_Bending	L3_L4_axial_rotation	L2_L3_Flex_Ext	L2_L3_Lat_Bending	L2_L3_axial_rotation	L1_L2_Flex_Ext	L1_L2_Lat_Bending	L1_L2_axial_rotation	L1_T12_Flex_Ext	L1_T12_Lat_Bending	L1_T12_axial_rotation	Abs_r3	Abs_r2	Abs_r1	Abs_t1	Abs_t2	neck_flexion	neck_bending	neck_rotation	arm_flex_r	arm_add_r	arm_rot_r	elbow_flex_r	pro_sup_r	wrist_flex_r	wrist_dev_r	arm_flex_l	arm_add_l	arm_rot_l	elbow_flex_l	pro_sup_l	wrist_flex_l	wrist_dev_l
4.795455	8.030152	4.080947	91.530292	0.201910	0.763897	0.660146	-5.806572	2.434360	13.007367	0.587388	0.010252	26.045060	-15.021295	0.000000	-2.888556	-6.324612	20.191263	0.251683	0.004393	32.239832	-12.910032	0.000000	0.354597	0.530593	-1.101781	0.658523	0.705688	-1.170642	0.582568	1.290083	-1.170642	0.405269	1.290083	-0.964058	0.329279	1.081985	-0.895197	0.202617	0.821888	-0.826336	2.532853	6.002171	-6.127774	0.000000	0.000000	28.399565	1.232171	2.155332	12.462512	-15.187184	124.147959	8.684178	3.769456	-8.269392	-2.454972	11.206288	-9.050920	162.359657	3.683481	10.540050	-6.125555	-1.952072
4.818182	8.188666	4.045002	91.554459	0.202445	0.764206	0.658668	-5.879522	2.632283	13.155545	0.523650	0.009139	26.128316	-14.941280	0.000000	-2.936866	-6.531917	20.404259	0.244258	0.004263	32.335447	-13.249624	0.000000	0.359729	0.534831	-1.110450	0.668052	0.711325	-1.179853	0.590998	1.300388	-1.179853	0.411134	1.300388	-0.971644	0.334044	1.090628	-0.902241	0.205549	0.828453	-0.832837	2.569506	6.050117	-6.175989	0.000000	0.000000	28.404022	1.191552	1.575070	12.663177	-14.806049	122.602244	8.851672	3.985819	-7.702428	-2.036431	11.558840	-9.160351	157.869608	4.005559	9.146013	-6.024970	-1.875980
4.840909	8.279730	4.027883	91.645936	0.202973	0.764690	0.657431	-5.950499	2.766908	13.311403	0.469796	0.008199	26.191562	-14.910173	0.000000	-2.970133	-6.673048	20.544027	0.237833	0.004151	32.460015	-13.405094	0.000000	0.360432	0.528804	-1.135115	0.669358	0.703309	-1.206060	0.592153	1.285734	-1.206060	0.411937	1.285734	-0.993226	0.334697	1.078337	-0.922281	0.205951	0.819118	-0.851336	2.574527	5.981938	-6.313169	0.000000	0.000000	28.407810	1.194736	0.967304	12.865189	-14.177830	123.186337	8.764700	4.337735	-7.334027	-1.723312	11.880328	-9.200167	153.882150	4.188592	8.365806	-6.081568	-1.792402
4.863636	8.313152	4.011527	91.791337	0.203470	0.765305	0.656570	-5.989902	2.845077	13.479154	0.427338	0.007458	26.219980	-14.943637	0.000000	-2.961436	-6.753543	20.545052	0.233020	0.004067	32.627652	-13.313329	0.000000	0.357231	0.515013	-1.170620	0.663415	0.684967	-1.243784	0.586896	1.252202	-1.243784	0.408280	1.252202	-1.024293	0.331725	1.050214	-0.951129	0.204122	0.797755	-0.877965	2.551668	5.825926	-6.510638	0.000000	0.000000	28.410052	1.229935	0.358287	13.088131	-13.339828	125.674659	8.444488	4.748245	-7.190669	-1.504412	12.197836	-9.142233	150.848277	4.231994	8.065711	-6.236070	-1.652930
4.886364	8.321605	3.982908	91.958167	0.203890	0.766010	0.656173	-5.975058	2.892336	13.648509	0.393883	0.006875	26.219369	-14.992504	0.000000	-2.897095	-6.802677	20.389880	0.229958	0.004014	32.822658	-12.987594	0.000000	0.350014	0.499694	-1.209187	0.650011	0.664593	-1.284761	0.575038	1.214957	-1.284761	0.400031	1.214957	-1.058039	0.325023	1.018977	-0.982464	0.199998	0.774026	-0.906890	2.500117	5.652642	-6.725135	0.000000	0.000000	28.409762	1.232270	-0.240162	13.346658	-12.333998	129.773282	7.892139	5.059241	-7.176364	-1.367384	12.533957	-8.950054	148.929109	4.129366	7.865943	-6.419533	-1.466596
4.909091	8.326706	3.933043	92.117753	0.204213	0.766760	0.656310	-5.889531	2.925168	13.880059	0.367384	0.006412	26.179231	-15.101124	0.000000	-2.770928	-6.840170	20.158225	0.229168	0.004000	33.000267	-12.553241	0.000000	0.338068	0.486906	-1.247165	0.627826	0.647586	-1.325113	0.555412	1.183864	-1.325113	0.386378	1.183864	-1.091269	0.313930	0.992900	-1.013322	0.193172	0.754218	-0.935374	2.414786	5.507983	-6.936358	0.000000	0.000000	28.406651	1.194930	-0.785061	13.660493	-11.231765	134.379538	7.251959	5.244299	-7.216087	-1.465968	12.898562	-8.600345	147.859920	3.878066	7.659935	-6.633917	-1.310575
4.931818	8.359187	3.842200	92.201672	0.204486	0.767495	0.657032	-5.701096	2.967014	14.177433	0.352888	0.006159	26.119318	-15.190552	0.000000	-2.571723	-6.892684	19.750587	0.231524	0.004041	33.156432	-11.981213	0.000000	0.322555	0.481025	-1.273391	0.599016	0.639764	-1.352978	0.529925	1.169565	-1.352978	0.368648	1.169565	-1.114217	0.299524	0.980907	-1.034630	0.184308	0.745108	-0.955043	2.303975	5.441454	-7.082219	0.000000	0.000000	28.400692	1.157872	-1.234325	14.028295	-10.111816	138.582147	6.653382	5.236523	-7.156096	-1.864452	13.306395	-8.069549	147.318143	3.520009	7.542431	-6.883954	-1.247762
4.954545	8.381572	3.718929	92.251008	0.204683	0.768169	0.658309	-5.429948	2.984733	14.525621	0.344823	0.006018	26.046228	-15.312212	0.000000	-2.308910	-6.924966	19.276805	0.236082	0.004120	33.255745	-11.372800	0.000000	0.302869	0.476420	-1.292514	0.562459	0.633639	-1.373296	0.497584	1.158369	-1.373296	0.346150	1.158369	-1.130950	0.281245	0.971517	-1.050168	0.173060	0.737975	-0.969386	2.163366	5.389363	-7.188576	0.000000	0.000000	28.393201	1.067614	-1.715644	14.414747	-9.026695	141.620500	6.218189	5.187468	-6.886120	-2.479773	13.766849	-7.398745	146.982037	3.146609	7.510585	-7.135459	-1.381401
4.977273	8.415324	3.556640	92.255340	0.204824	0.768730	0.660073	-5.075198	3.001568	14.906338	0.341706	0.005964	25.953803	-15.435616	0.000000	-1.981066	-6.961032	18.680505	0.242966	0.004241	33.328322	-10.666204	0.000000	0.281091	0.475382	-1.303572	0.522014	0.632259	-1.385046	0.461804	1.155845	-1.385046	0.321259	1.155845	-1.140626	0.261021	0.969400	-1.059152	0.160615	0.736367	-0.977679	2.007804	5.377621	-7.250078	0.000000	0.000000	28.384420	0.982525	-2.156586	14.805532	-7.982946	144.287420	5.852581	4.995519	-6.499279	-3.225919	14.270913	-6.599432	146.830879	2.816501	7.578208	-7.398499	-1.735134
5.000000	8.449301	3.366390	92.152888	0.204954	0.769186	0.662172	-4.658631	3.000623	15.355311	0.344666	0.006016	25.821070	-15.553709	0.000000	-1.623168	-6.986313	18.029591	0.250643	0.004375	33.353295	-10.035004	0.000000	0.258635	0.476880	-1.287844	0.480310	0.634251	-1.368334	0.424911	1.159486	-1.368334	0.295593	1.159486	-1.126864	0.240168	0.972454	-1.046373	0.147784	0.738687	-0.965883	1.847401	5.394563	-7.162602	0.000000	0.000000	28.374378	0.863882	-2.608914	15.138815	-7.078311	145.791461	5.682883	4.776796	-5.956128	-3.998893	14.787760	-5.689320	146.843413	2.544323	7.620943	-7.631615	-2.311752
5.022727	8.473978	3.152182	91.972749	0.205027	0.769522	0.664495	-4.199342	2.976116	15.816997	0.350270	0.006113	25.626529	-15.672441	0.000000	-1.237437	-6.990982	17.346947	0.258672	0.004515	33.368741	-9.454660	0.000000	0.237719	0.480033	-1.246546	0.441469	0.638444	-1.324456	0.390549	1.167152	-1.324456	0.271689	1.167152	-1.090728	0.220746	0.978883	-1.012819	0.135833	0.743571	-0.934910	1.698006	5.430230	-6.932917	0.000000	0.000000	28.363916	0.761644	-3.015835	15.402270	-6.344308	146.370633	5.675089	4.514981	-5.334413	-4.733645	15.286838	-4.686542	147.491235	2.296258	7.663872	-7.837532	-3.035422
5.045455	8.466894	2.923729	91.740495	0.205035	0.769733	0.666948	-3.718805	2.906687	16.300346	0.360393	0.006290	25.395239	-15.816669	0.000000	-0.832327	-6.951092	16.622406	0.266129	0.004645	33.360948	-8.911742	0.000000	0.218625	0.482591	-1.188780	0.406008	0.641846	-1.263079	0.359179	1.173371	-1.263079	0.249866	1.173371	-1.040183	0.203015	0.984099	-0.965884	0.124922	0.747533	-0.891585	1.561616	5.459164	-6.611640	0.000000	0.000000	28.352999	0.639423	-3.330650	15.618250	-5.799188	146.108915	5.805640	4.241911	-4.662254	-5.384903	15.703519	-3.660617	148.471921	2.079819	7.516101	-7.935059	-3.862502
5.068182	8.467241	2.676762	91.469024	0.204914	0.769777	0.669466	-3.219458	2.833475	16.764234	0.375210	0.006549	25.117202	-15.986097	0.000000	-0.401188	-6.906436	15.860747	0.272849	0.004762	33.373728	-8.379591	0.000000	0.203036	0.490483	-1.114169	0.377058	0.652343	-1.183804	0.333568	1.192561	-1.183804	0.232050	1.192561	-0.974898	0.188539	1.000194	-0.905262	0.116015	0.759759	-0.835626	1.450266	5.548445	-6.196672	0.000000	0.000000	28.341870	0.499546	-3.484179	15.794379	-5.507824	144.817658	6.083341	4.003641	-3.961824	-5.904495	16.026595	-2.609634	149.691474	1.916971	7.321424	-7.902894	-4.688645
5.090909	8.506246	2.415777	91.175937	0.204622	0.769640	0.671964	-2.711233	2.789611	17.177455	0.396015	0.006912	24.812552	-16.162197	0.000000	0.048270	-6.889787	15.114088	0.278803	0.004866	33.410719	-7.889158	0.000000	0.191803	0.508296	-1.025035	0.356198	0.676034	-1.089100	0.315114	1.235871	-1.089100	0.219212	1.235871	-0.896906	0.178109	1.036517	-0.832841	0.109596	0.787351	-0.768776	1.370032	5.749947	-5.700937	0.000000	0.000000	28.330436	0.299962	-3.457713	15.951697	-5.490603	142.618250	6.459297	3.726973	-3.251861	-6.293971	16.254850	-1.535144	151.308589	1.812121	6.810146	-7.717329	-5.407492
5.113636	8.614218	2.147846	90.879734	0.204131	0.769327	0.674378	-2.202707	2.807511	17.519199	0.422298	0.007370	24.497173	-16.323731	0.000000	0.504986	-6.933136	14.451613	0.284318	0.004962	33.461013	-7.474158	0.000000	0.185336	0.539790	-0.930355	0.344188	0.717920	-0.988502	0.304489	1.312444	-0.988502	0.211821	1.312444	-0.814060	0.172103	1.100739	-0.755913	0.105901	0.836134	-0.697766	1.323839	6.106207	-5.174353	0.000000	0.000000	28.318403	0.093248	-3.173721	16.134650	-5.745878	139.548039	6.908988	3.454910	-2.547858	-6.567119	16.378154	-0.459847	152.650919	1.791681	6.295652	-7.419793	-5.989900
5.136364	8.759285	1.889819	90.618682	0.203497	0.768871	0.676634	-1.717867	2.862826	17.795765	0.454580	0.007934	24.219744	-16.477123	0.000000	0.945742	-7.010357	13.893636	0.290253	0.005066	33.518811	-7.094275	0.000000	0.183147	0.578727	-0.839503	0.340122	0.769707	-0.891972	0.300892	1.407117	-0.891972	0.209319	1.407117	-0.734565	0.170070	1.180141	-0.682096	0.104650	0.896448	-0.629627	1.308201	6.546678	-4.669065	0.000000	0.000000	28.306507	-0.141264	-2.751899	16.366025	-6.210338	135.808363	7.392618	3.300513	-1.929414	-6.806126	16.424690	0.568009	154.030551	1.828617	5.565384	-7.082710	-6.472906
5.159091	8.928752	1.649155	90.416293	0.202791	0.768307	0.678671	-1.269409	2.950787	17.973943	0.495922	0.008655	24.016247	-16.589076	0.000000	1.356938	-7.115725	13.566816	0.296701	0.005178	33.539092	-6.872122	0.000000	0.185048	0.620979	-0.763687	0.343653	0.825903	-0.811417	0.304016	1.509849	-0.811417	0.211492	1.509849	-0.668226	0.171836	1.266301	-0.620496	0.105737	0.961897	-0.572765	1.321780	7.024643	-4.247397	0.000000	0.000000	28.295560	-0.325239	-2.222652	16.667080	-6.807703	132.061580	7.835666	3.108031	-1.407752	-7.110897	16.395840	1.482347	155.084020	1.938518	4.792647	-6.811086	-6.952445
5.181818	9.082100	1.435025	90.315303	0.202080	0.767670	0.680439	-0.875894	3.037989	18.019259	0.543485	0.009486	23.900444	-16.662158	0.000000	1.729312	-7.212630	13.517849	0.304155	0.005309	33.512640	-6.810754	0.000000	0.190695	0.658852	-0.712141	0.354140	0.876273	-0.756650	0.313293	1.601932	-0.756650	0.217946	1.601932	-0.623124	0.177080	1.343531	-0.578615	0.108963	1.020562	-0.534106	1.362118	7.453064	-3.960715	0.000000	0.000000	28.286251	-0.449060	-1.700152	16.997935	-7.475856	128.432190	8.207585	2.938262	-1.041386	-7.497375	16.301181	2.219343	155.863297	2.110156	3.937468	-6.669796	-7.486275
